# xmcd
#
# Track frame offsets:
#	150
#	16455
#	31158
#	47458
#	62765
#	82870
#	108223
#	133315
#	154433
#	175045
#	192178
#	211910
#	229618
#	256340
#	279300
#	295700
#
# Disc length: 4241 seconds
#
# Revision: 0
# Processed by: cddbd v1.5.2PL0 Copyright (c) Steve Scherf et al.
# Submitted via: EasyCDDAExtractor 12.0.0.1
#
DISCID=d1108f10
DTITLE=Various Artist - DJ Hits Vol.29
DYEAR=1997
DGENRE=Dance
TTITLE0=Sax - Encore Une Fois
TTITLE1=BB Cue - Flash
TTITLE2=Silverdust - I Have A Dream
TTITLE3=Futuristic E - Why Don't You Dance With Me
TTITLE4=Chicane - Offshore
TTITLE5=Red5 - Da Beat Goes
TTITLE6=Grooveyard - Mary Go Wild!
TTITLE7=Ventura - Birds
TTITLE8=BB Cue - Seven Days And One Week
TTITLE9=Central Seven - The Opera
TTITLE10=X-Man - Satisfaction Guaranteed
TTITLE11=AirScape - Cruising
TTITLE12=DJ Philip - Reach Out
TTITLE13=Vincent De Moor - Flowtation
TTITLE14=B-Rave - Pure Emotion
TTITLE15=Grooveyard - Beats Included v.1.2
EXTD=
EXTT0=
EXTT1=
EXTT2=
EXTT3=
EXTT4=
EXTT5=
EXTT6=
EXTT7=
EXTT8=
EXTT9=
EXTT10=
EXTT11=
EXTT12=
EXTT13=
EXTT14=
EXTT15=
PLAYORDER=
